<svg xmlns="http://www.w3.org/2000/svg" viewBox="0 0 793.31 764.44"><defs><style>.cls-1{fill:#fff;}</style></defs><g id="Camada_2" data-name="Camada 2"><g id="Camada_1-2" data-name="Camada 1"><path class="cls-1" d="M207.73,478.36c-6.39,11.63-12.41,22.55-18.4,33.5-12.55,22.94-25.51,45.65-39.67,67.64-10.8,16.77-27.12,22.38-46,21.46-11.16-.54-20.9-11.92-21.35-23.81a51.15,51.15,0,0,1,5.06-25.09c16.18-33.13,29.31-67.61,44-101.42,9.3-21.47,18.29-43.07,27.42-64.6a7.83,7.83,0,0,0,.87-3.91c-8.85,6.74-17.75,13.44-26.55,20.25C113.26,417.72,93.41,433.06,72,446.09c-16.93,10.3-35.56,11.62-54.35,6.8C4.2,449.45-2.36,437.12.77,423.61a43.63,43.63,0,0,1,13.14-23c22.19-20.3,45.31-39.52,68.28-58.89q113-95.31,224.41-192.41a210.08,210.08,0,0,1,82.49-44.62c36.51-10.33,72.23-23.44,108.29-35.36Q601.45,34.93,705.49.46c3-1,4.31-.43,5.6,2.51q40.57,92.43,81.4,184.76c1.41,3.18,1.2,4.27-2.21,5.72-39.43,16.71-69.45,43.89-89.65,81.72-17.72,33.21-30.36,68.5-42.55,104-9.17,26.7-15.36,54.3-24.18,81.09-10.63,32.26-22.12,64.23-35.55,95.47a85.28,85.28,0,0,1-4.61,9c-12.16,21-22,43.12-33.17,64.58-7.88,15.1-18.09,28.13-28.54,41.46-6.28,8-16.37,9.69-24.79,3.73-15.48-11-18.64-26.87-17.46-44.29.73-11,4.36-21.3,8.71-31.38,17.78-41.18,35.9-82.23,53.17-123.63,28.7-68.83-3.88-140.58-55-173.72-30.87-20-64.73-22.17-100.14-15.33-22.48,4.34-39.65,17.1-56.64,31.07-28.33,23.28-40.26,54.1-43.73,89.56-3.44,35.17,5.48,67.41,20.92,98.43,8.79,17.64,17.15,35.5,26.15,53,12,23.33,22,47.42,28.56,72.79,3.7,14.4.38,33.62-16.23,41.41-7.93,3.72-25.36,2.6-31.81-2.95a9.17,9.17,0,0,1-1.82-2.74c-15.67-29.85-34.2-57.68-57.53-82.2C246.54,565.73,235.09,543,225,519.42,219.22,506,213.68,492.55,207.73,478.36Z"/><path class="cls-1" d="M431.44,713.28c13.49,0,27,0,40.47,0,8.23,0,14.33,5.78,14.47,13.5a14.24,14.24,0,0,1-10.6,13.7c-5.7,1.52-12.18-.87-16.53,4.24a19.75,19.75,0,0,0-3,5.08c-4.87,11.28-15.61,16-27.95,14.29-11.22-1.56-19-8.33-22.68-19.07-1.05-3-2.27-4.14-5.35-3.93-3.35.22-6.74.13-10.11,0a13.91,13.91,0,0,1,.34-27.82C404.14,713.24,417.79,713.28,431.44,713.28Z"/><path class="cls-1" d="M431.85,677.59c13.34,0,26.68,0,40,0,8.4,0,14.46,5.69,14.5,13.4s-6,13.49-14.38,13.51q-40.75.06-81.51,0c-8,0-14-5.86-14-13.38s6-13.48,13.88-13.52C404.19,677.53,418,677.59,431.85,677.59Z"/><path class="cls-1" d="M428,315.92c33.4,3.95,62,19.49,83.06,48.15a136.79,136.79,0,0,1,19.07,37.57A11.65,11.65,0,0,1,529,411.77c-3,5.12-8.28,5.75-12.47,1.55a17.26,17.26,0,0,1-4.46-7.88c-6.15-23.24-20.94-40.07-40-53.55-13.55-9.55-28.76-15.38-44.93-18.79a19.35,19.35,0,0,1-5.45-1.71c-3.33-1.86-6.31-4.26-5.37-8.7C417,319.11,422.29,315.66,428,315.92Z"/></g></g></svg>