<svg id="Camada_1" data-name="Camada 1" xmlns="http://www.w3.org/2000/svg" viewBox="0 0 1000 1000"><defs><style>.cls-1{fill:#404040;}</style></defs><path class="cls-1" d="M310.55,594.5c-6.38,11.63-12.4,22.55-18.39,33.5-12.56,22.94-25.51,45.65-39.68,67.64-10.8,16.77-27.12,22.38-46,21.46-11.16-.54-20.89-11.92-21.35-23.81a51.27,51.27,0,0,1,5.06-25.09c16.18-33.13,29.31-67.61,44-101.42,9.3-21.47,18.29-43.07,27.43-64.6a8,8,0,0,0,.87-3.91c-8.86,6.75-17.75,13.44-26.56,20.25-19.81,15.35-39.66,30.68-61.09,43.71-16.93,10.3-35.56,11.62-54.35,6.8-13.43-3.44-20-15.77-16.86-29.28a43.62,43.62,0,0,1,13.15-23c22.18-20.3,45.31-39.52,68.28-58.89q113-95.31,224.4-192.41a210.12,210.12,0,0,1,82.5-44.62c36.5-10.33,72.22-23.44,108.28-35.36q104.07-34.4,208.11-68.86c3-1,4.31-.42,5.6,2.51q40.58,92.45,81.41,184.76c1.4,3.18,1.19,4.27-2.21,5.72-39.44,16.71-69.46,43.89-89.65,81.72-17.72,33.21-30.37,68.5-42.56,104-9.17,26.7-15.35,54.3-24.18,81.09-10.62,32.26-22.11,64.24-35.55,95.47a85.2,85.2,0,0,1-4.6,9c-12.17,21-22,43.12-33.18,64.58-7.88,15.1-18.09,28.13-28.53,41.46-6.28,8-16.37,9.69-24.79,3.73-15.49-10.94-18.64-26.87-17.47-44.29.74-11,4.36-21.3,8.71-31.37,17.78-41.19,35.91-82.24,53.17-123.64,28.7-68.83-3.87-140.58-55-173.71-30.87-20-64.73-22.18-100.13-15.34-22.49,4.35-39.65,17.1-56.65,31.07-28.33,23.28-40.26,54.1-43.73,89.56-3.44,35.17,5.48,67.41,20.93,98.43,8.78,17.64,17.14,35.5,26.14,53,12,23.33,22,47.43,28.56,72.79,3.71,14.4.39,33.62-16.23,41.41-7.93,3.72-25.35,2.6-31.8-2.95a9,9,0,0,1-1.83-2.74c-15.67-29.85-34.19-57.68-57.53-82.19-17.88-18.79-29.33-41.57-39.44-65.1C322,622.17,316.51,608.69,310.55,594.5Z"/><path class="cls-1" d="M534.26,829.42c13.49,0,27,0,40.47,0,8.23,0,14.34,5.79,14.47,13.5a14.23,14.23,0,0,1-10.59,13.7c-5.71,1.52-12.19-.87-16.54,4.24a19.89,19.89,0,0,0-3,5.09c-4.88,11.27-15.62,16-28,14.28-11.23-1.56-19-8.32-22.69-19.07-1-3-2.27-4.14-5.34-3.93a100.46,100.46,0,0,1-10.12,0,13.91,13.91,0,0,1,.34-27.82C507,829.38,520.61,829.42,534.26,829.42Z"/><path class="cls-1" d="M534.67,793.73c13.34,0,26.69,0,40,0,8.4,0,14.47,5.69,14.5,13.4s-6,13.49-14.37,13.51q-40.76.06-81.51,0c-8,0-14-5.86-14-13.38s6-13.48,13.88-13.52C507,793.68,520.84,793.73,534.67,793.73Z"/><path class="cls-1" d="M530.77,432.06c33.4,3.95,62,19.49,83.06,48.16a136.9,136.9,0,0,1,19.08,37.56,11.66,11.66,0,0,1-1.12,10.13c-3,5.12-8.28,5.75-12.47,1.55a17.26,17.26,0,0,1-4.45-7.87c-6.16-23.25-20.94-40.08-40-53.56-13.55-9.55-28.75-15.38-44.93-18.79a19.35,19.35,0,0,1-5.45-1.71c-3.32-1.86-6.3-4.26-5.37-8.7C519.83,435.25,525.11,431.8,530.77,432.06Z"/></svg>